<svg xmlns="http://www.w3.org/2000/svg" xmlns:xlink="http://www.w3.org/1999/xlink" width="749.598" height="93.384" viewBox="0 0 749.598 93.384">
  <defs>
    <clipPath id="clip-path">
      <rect id="Retângulo_1478" data-name="Retângulo 1478" width="749.598" height="93.384" fill="#fc9f06"/>
    </clipPath>
  </defs>
  <g id="Grupo_4398" data-name="Grupo 4398" transform="translate(0.002)">
    <g id="Grupo_4230" data-name="Grupo 4230" transform="translate(-0.002 0)">
      <g id="Grupo_4229" data-name="Grupo 4229" clip-path="url(#clip-path)">
        <path id="Caminho_1579" data-name="Caminho 1579" d="M514.21,34.516a32.341,32.341,0,0,0,10.436.726,16.154,16.154,0,0,1,6.554.174,8.722,8.722,0,0,0,2.417-.038c1.011-.018,2.281-.419,2.987.041,2.749,1.792,5.535.655,8.3.437,4.867-.382,9.735-.771,14.6-.114A14.476,14.476,0,0,1,562.76,37.1c1.211-.656,2.617-2.846,4.676-.557.861.958,1.88.594,2.83.346,1.43-.373,2.8-1.058,4.241-1.282a33.676,33.676,0,0,1,3.994.07c2.024-.064,4.05-.383,6.063-.3.844.035,1.658.82,2.916,1.5a8.091,8.091,0,0,1,2.059-1.094,8.53,8.53,0,0,1,2.495.113,12.848,12.848,0,0,0,1.506.05,90.624,90.624,0,0,1,16.154.208,44.889,44.889,0,0,0,5.5.6c1.645-.008,3.259-.783,4.847.514.333.273,1.448-.608,2.209-.625,2.37-.053,4.745.015,7.117.107,6.089.237,12.18.453,18.265.79,6.58.365,13.154.861,19.73,1.292,1.979.13,3.961.232,6.041.352-.286-1.108-.482-1.866-.752-2.912,1.5-.027,2.725-.032,3.949-.075,1.171-.041,2.346-.076,3.511-.194,2.25-.23,3.819,1.114,5.417,2.334.3.229.269.892.382,1.32,4.566.265,9.148.309,13.67.856,4.34.526,8.743.535,13.016,1.859,2.541.788,5.341.723,8.01,1.136.306.047.615.671.731,1.081.051.184-.352.518-.583.751a.65.65,0,0,1-.449.2q-5.779-.652-11.555-1.334c-.882-1.207-1.83-.465-2.938-.361a36.989,36.989,0,0,1-6.557-.453c-4.389-.382-8.777-.8-13.171-1.133-2.285-.173-2.291-.105-3.86,2.3-2.784,1.194-4.628-1.549-7.24-1.764a14.732,14.732,0,0,1-2.672,1.971c-.828.376-1.987.679-2.354-.914-.063-.276-1.115-.324-1.7-.484a6.884,6.884,0,0,0,.156-1.442c-.015-.188-.392-.347-.605-.519-.114.239-.385.559-.312.7a7.6,7.6,0,0,0,.866,1.16c-.669,1.32-1.888,1.289-3.087,1.206-8.9-.615-17.847-.566-26.721-1.772-4.686-.637-9.481-.171-14.167-1.114a9.469,9.469,0,0,0-2.517.212c-6.286.534-12.51-.173-18.755-.785-3.836-.375-7.719-.309-11.582-.364q-21.876-.315-43.753-.576c-9.326-.113-18.653-.239-27.979-.263-4.192-.011-8.384.213-12.56.331-.5,1.064.413,1.044.922,1.324a9.572,9.572,0,0,0,6.931.752c2.843-.666,5.549-1.256,8.367.109.654.317,1.632,0,2.456-.072,3.781-.334,7.56-1.347,11.343-.018,3.01-1.384,6.372,1.247,9.361-.808.263-.181.957.4,1.423.356,2.424-.237,4.845.964,7.31-.173a4.624,4.624,0,0,1,3.011.067c4.923,1.539,10,.3,14.96.933,3.294-1.985,6.658-.573,9.82.171,2.91.685,5.7.014,8.543.235,8.445.655,16.913,1.03,25.374,1.459,11.853.6,23.719.987,35.559,1.762,14.044.919,28.071,2.106,42.1,3.274,6.592.549,13.179,1.208,19.742,2.03,5.877.736,11.718,1.755,17.571,2.682a5.555,5.555,0,0,1,1.36.667c-2.881,1.074-2.886,1.1-4.668.695-.821-.185-1.665-.785-2.416-.668-3.6.562-7.027-.86-10.57-.739-.806.028-1.611.081-2.382.122-.2,1.515.563,1.983,1.655,2.284a93.01,93.01,0,0,0,13.408,2.193c5.372.668,10.732,1.43,16.1,2.158a11.807,11.807,0,0,1,5.085,2.05c-.978,2.075-2.6,2.763-4.23,1.986-2.557-1.221-5.2.043-7.816-.859a22.29,22.29,0,0,0-7.982-1.1,42.579,42.579,0,0,1-7.079-.741c-2.165-.3-4.267-1.015-6.514-.754a2.545,2.545,0,0,1-1.911-.5c-.862-.922-1.426-.785-2.474-.212-1.91,1.044-4,.137-6,0-2.2-.155-4.375-.519-6.568-.73a8.784,8.784,0,0,0-1.933.357c.547.63.83,1.2,1.287,1.443,3.4,1.8,7.178,1.782,10.863,2.213,3.869.453,7.741.882,11.6,1.389a15.46,15.46,0,0,1,2.656.933c-.9.565-1.293,1.023-1.655,1-3.353-.2-6.693-.543-10.066-.532-1.287,0-2.56-.748-3.87-.921-1.141-.15-2.433-.162-2.8,1.772l3.471,1.079c-4.895.689-9.645,1.845-14.515,1.174a12.966,12.966,0,0,0-3.049-.069c-5.1.516-10.134-.318-15.191-.665a44.738,44.738,0,0,0-7.063-.35c-4.94.453-9.793-.393-14.686-.562-5.924-.2-11.848-.409-17.773-.563-3.355-.088-6.714-.076-10.051-.109-.477,1.265.281,1.672,1.136,1.752a4.28,4.28,0,0,0,2.458-.27c2-1.225,3.8-.951,5.72.113.7.39,1.828.843,2.379.55,2.628-1.4,4.9.2,7.312.559a21.285,21.285,0,0,0,3.532.283c5.749-.107,11.49.72,17.246.11a5.9,5.9,0,0,1,2.479.351,11.2,11.2,0,0,0,5.512.387,13.534,13.534,0,0,1,3.007.008c3.531.265,7.057.59,10.587.86,3.351.256,6.784.1,10.036.8,3.99.856,8.038.4,12.022,1.211,3.969.81,8.065.981,12.091,1.542a47.923,47.923,0,0,1,4.9,1.256,4.951,4.951,0,0,1-4.088,1.02c-5.889-.679-11.787-1.3-17.693-1.821-1.568-.137-3.358-.629-4.9,1.235,3.087,1.739,6.4.9,9.451,1.42,3.146.54,6.385.528,9.987,2.258-1.42.058-2.243.115-3.068.119-1.018.005-2.037-.011-3.053-.056-4.629-.205-4.628-.21-8.61,1.809.514-2.054.514-2.054-1.951-2.118l2.057,2.045-3.781,1.7c.333.376.57.907.927,1.007a55.019,55.019,0,0,0,8.351,1.943c7.9.936,15.779,2.136,23.653,3.316a22.5,22.5,0,0,1,6.662,1.816c.436,1.326-.4,1.882-1.169,1.927a29.266,29.266,0,0,1-5.038-.2c-3.175-.366-6.336-.852-9.455-1.282-.319,1.145-.052,1.592.778,1.727,1.468.239,3.059.1,4.286,1.362-1,1.189-2.4,1.085-3.7,1.119-2.669.069-5.386-.605-7.917.99-.589.371-1.644.051-2.478-.025-7.088-.644-14.165-1.472-21.265-1.925-12.858-.821-25.722-1.689-38.6-2.051-18.463-.519-36.911-1.39-55.367-2.059a15.968,15.968,0,0,0-3.033.13c-.368.057-.66.594-1.38,1.293l13.954,1.061c-5.658,1.147-11.317.051-16.979.67.382-1.082.53-2.047-.714-2.546-1.021-.409-1.565.025-2.475,2.092-.67-.3-1.35-.856-2.009-.83a8.807,8.807,0,0,0-2.251.882,8.4,8.4,0,0,1-2.379.658c-8.6.3-17.208.6-25.814.769-6.781.131-13.567.074-20.35.094-2.03.006-4.061-.022-6.091-.02-7.292.006-14.584,0-21.876.033-5.594.023-11.187.156-16.78.122-9.841-.06-19.681-.2-29.521-.324-9.324-.12-18.647-.329-27.971-.388-11.867-.076-23.735-.06-35.6-.046q-12.974.015-25.948.13c-11.863.1-23.731.088-35.588.435-4.743.138-9.477.1-14.213.184-6.768.123-13.525.726-20.29,1.033-5.589.255-11.183.426-16.777.548-7.966.174-15.934.271-23.9.4q-16.792.267-33.584.524c-8.812.124-17.625.283-26.438.289-5.77,0-11.54-.3-17.311-.361-14.077-.151-28.155-.17-42.23-.378-13.9-.205-27.8-.6-41.7-.863-6.1-.115-12.208-.07-18.31-.158-4.733-.069-9.471-.725-14.195.143-6.7-1.206-13.489-.479-20.232-.773-8.97-.39-17.969-.052-26.947-.325-4.722-.143-9.428-.894-14.132-1.444a5.2,5.2,0,0,1-1.809-.891,1.377,1.377,0,0,1-.133-2.161c.728-.79,2.746-.478,2.23-2.2-.249-.83-1.24-1.5-2.007-2.1-1.7-1.328-.321-2.984-.58-4.468,3.9-1.1,8.028.594,11.971-.757-.619-1.774-2.3-.556-3.154-1.846.1-.291.312-.932.622-1.859-2.3-.222-4.543-.092-6.54-.725-2.154-.682-3.887.883-5.82.635-.481-1.412.552-2.005,1.214-2.655.512-.5,1.015-.751.577-1.6-.521-1.006.055-1.769,1.017-1.727,1.383.06,2.146-.241,2.471-1.708a2,2,0,0,1,1.6-.988c1.982.044,3.042-1.275,4.495-2.784l-2.6-.7a10.512,10.512,0,0,0-.117-3.113,14.192,14.192,0,0,0-1.908-2.991l2.538-2.091a5.022,5.022,0,0,1,1.437-5.56l6.06-.937c.55-1.3-.22-1.7-1.035-1.934a20.159,20.159,0,0,0-2.44-.4,4.455,4.455,0,0,1-.58-5.053c3.871-2.107,8.319-1.832,12.666-2,5.408-.212,10.822-.277,16.232-.434a2.3,2.3,0,0,0,1.342-.6c-3.5-.249-6.835-1.216-10.372-1.426-5.079-.3-10.155-.057-15.221-.411a3.589,3.589,0,0,1-3.668-2.872,2.6,2.6,0,0,1,.183-1.427c.1-.267.528-.638.739-.6,1.739.331,1.189-2.065,2.626-2.122,1.861-.074,3.716-.357,5.577-.4q16.513-.367,33.029-.65a6.641,6.641,0,0,0,4.288-1.35c-2.63-.152-4.607-.379-6.582-.363q-13.986.117-27.97.353c-5.749.1-11.5.435-17.243.407-3.675-.018-7.348-.5-10.761-.761,2.087-1.029,4.671-.92,7.232-1.091,3.157-.211,6.3-.624,9.549-.961l1.382-3.414c.769-.084,1.6-.157,2.434-.269,1.407-.19,1.3-1.246,1.246-2.322a5.7,5.7,0,0,1,1.395-.437c5.59-.267,11.181-.532,16.774-.731,6.6-.234,13.212-.4,19.818-.6.679-.021,1.357-.081,2.035-.086,17.307-.126,34.613-.359,51.919-.336,15.779.021,31.557.39,47.336.477,11.37.062,22.74-.075,34.11-.144q13.746-.083,27.492-.217c16.267-.14,32.535-.243,48.8-.448,7.126-.089,14.248-.4,21.373-.59,11.193-.294,22.385-.637,33.58-.83,12.214-.211,24.431-.245,36.646-.414,10.162-.14,20.324-.362,30.486-.551.849-.016,1.7-.089,2.546-.082,8.652.07,17.3.113,25.955.244,5.234.079,10.466.4,15.7.435,9.651.072,19.3-.047,28.955.034,8.137.069,16.272.331,24.409.463,4.221.069,8.445-.005,12.666.078,2.367.046,4.73.38,7.1.409,4.4.053,8.81-.1,13.214-.025,6.6.113,13.2.375,19.8.523,3.9.088,7.8.079,11.7.114,6.275.057,12.55.094,18.825.175,7.63.1,15.262.15,22.889.387,4.215.131,8.428.515,12.627.931,17.9,1.776,35.872,2.468,53.826,3.4,5.928.309,11.864.44,17.79.77,2.684.149,5.352.586,8.11.9.907.835-.432,1.354-.351,2.157.161.138.38.492.635.52,2.529.279,5.065.489,7.6.749a29.19,29.19,0,0,1,5.358.942c-3.127.9-6.265.026-9.384.139-2.946.106-5.962-.867-9.76.589,4.08,1.369,7.478,1.181,10.763,1.666,3.161.467,6.319.965,9.4,1.438.281,1.461-.6,1.694-1.421,1.686-2.543-.025-5.09-.1-7.626-.271-7.776-.523-15.549-1.059-23.319-1.666-10.8-.844-21.629-1.039-32.438-1.642q-9.4-.525-18.792-1.02a17.055,17.055,0,0,0-6.365.324c1.437,1.221,2.8.911,4.028,1.035,1.35.136,2.708.2,4.064.27s2.711.125,4.068.171c1.526.053,3.053.1,4.58.128,1.355.027,2.71,0,4.064.046s2.713.12,4.068.215,2.7.259,4.048.34,2.715.084,4.071.144,2.711.132,4.064.224,2.707.243,4.063.317c1.524.084,3.066,0,4.573.2,1.3.172,2.555.817,3.855.922,1.324.107,2.683-.3,4.024-.281a36.086,36.086,0,0,1,3.835.422c.33,1.415-.395,1.925-1.229,2.069a13.807,13.807,0,0,1-3.036.059q-6.3-.324-12.594-.707c-13.72-.827-27.438-1.7-41.161-2.483-5.928-.34-11.893-.978-17.792-.636-6.284.364-12.491-.474-18.739-.314-.983.025-2.47.481-2.912-1.508,7.206-.841,14.417.133,21.6-.587a1.984,1.984,0,0,0-2.445-1.417c-6.941.684-13.858-.008-20.787-.087-4.878-.055-9.76.032-14.645-.109-1.41-.041-3.035.236-3.192,2.409-.033.456-1.267,1.154-1.967,1.178-3.212.109-6.431.025-9.647,0q-9.138-.073-18.275-.157c-2.372-.02-4.745,0-7.115-.072a3.6,3.6,0,0,0-3.208,1.144,12.231,12.231,0,0,0-7.361-1.207,21.213,21.213,0,0,1-4.052.091c-7.776-.052-15.553-.124-23.329-.149-.352,0-.7.395-1.315.761a6.576,6.576,0,0,0,1.7.649c4.036.084,8.074.106,12.111.159.987.013,1.976.137,2.958.093,2.354-.1,4.7-.367,7.058-.406,4.054-.067,8.11.708,12.163-.046M689.1,66.129c-1.42-.136-2.85-1.166-4.291.009,1.826,1.843,2.105,1.838,4.26-.02l1.829.859q.09-.294.18-.589l-1.978-.259m4.3-14.257c-9.638-.634-18.026-1.193-26.417-1.715a9.029,9.029,0,0,0-2.077.571,13.5,13.5,0,0,0,3,.643c6.221-.42,12.272,1.6,18.484,1.253a1.438,1.438,0,0,1,.944.243c1.839,1.609,3.409.487,6.062-.994M75.614,30.618a22.536,22.536,0,0,0-9.421-.183,14.74,14.74,0,0,0,9.421.183M637.7,48.676c3.676,1.631,4.454,1.615,6.573.381l-6.573-.381m-93.6-17.088c-3.248-2.058-3.414-2.044-4.6-.267l4.6.267M615,29.067c1.733.3,3.454,1.364,5.207.024L615,29.067m33.318,20.866a29.454,29.454,0,0,0,3.413,1c.253.041.649-.486.872-.823.053-.081-.289-.6-.51-.651a7.949,7.949,0,0,0-1.943-.177,9.254,9.254,0,0,0-1.832.648m-77.475-2.977a8.016,8.016,0,0,0,1.788.322c.257-.025.483-.379,1.453-1.213l-3.241.891M48.425,23.861c-.83.009-1.583-.03-2.322.05-.256.027-.482.347-.722.534.207.214.394.585.623.614.894.113,1.952.512,2.421-1.2m583.184,5.65c-.427-.776-1.112-.689-1.746-.406-.228.1-.3.548-.446.837a15.1,15.1,0,0,0,1.822.447c.079.011.24-.56.37-.878m-105.967.951a9.446,9.446,0,0,0-2.191-.786c-.244-.013-.52.57-.781.883.4.245.787.637,1.213.689.354.043.757-.314,1.76-.786M708.86,54.08c.036.15.032.4.115.434a8.791,8.791,0,0,0,1.628.526c.084.017.27-.493.409-.76a6.835,6.835,0,0,0-1.26-.421,2.485,2.485,0,0,0-.892.222M507.228,20.568c-.745-.043-1.311-.091-1.875-.074-.038,0-.157.684-.076.724a3.167,3.167,0,0,0,1.281.37c.152,0,.316-.46.67-1.02M11.155,77.174q.013-.231.027-.463l-3.036-.176c-.01.154-.018.309-.028.463l3.037.176m613.3-47.667c-.01.1-.021.206-.032.31a2.75,2.75,0,0,0,.849.225c.228-.014.443-.237.663-.367l-1.481-.168m-74.585,1.649a5.994,5.994,0,0,0-.424-.993,7.669,7.669,0,0,0-1.583.517,2.453,2.453,0,0,0,.239.817,16.169,16.169,0,0,0,1.768-.342m-52.853-.7c-.218-.23-.415-.606-.663-.644-.21-.032-.481.326-.724.512.221.194.426.514.667.545.22.027.479-.26.721-.412m12.827.208c-.2-.39-.318-.843-.464-.853a6.54,6.54,0,0,0-1.392.175c.194.35.324.915.6.995.349.1.813-.187,1.26-.317m-56.671-.428c-.02-.113-.031-.323-.061-.325-.318-.029-.639-.026-.959-.032.017.116.026.331.052.333.321.027.645.021.968.023M606.118,47.275c-.228-.171-.446-.461-.672-.467s-.476.263-.714.413c.215.218.422.6.646.609s.477-.342.74-.555M699.373,80.3l-.638.684c.261.149.532.427.779.407.215-.018.4-.373.6-.578-.247-.171-.494-.343-.743-.513m4.7-37.489a2.911,2.911,0,0,0-.1-.384c-.267.035-.53.1-.794.16a2.208,2.208,0,0,0,.109.38,7.225,7.225,0,0,0,.783-.156M460.845,29.71l.722.611c.089-.13.273-.283.248-.386a3.546,3.546,0,0,0-.334-.712l-.637.486m-119.911.251q.01-.181.02-.362l-1.6-.093c-.006.121-.013.242-.02.362l1.6.093M502.066,40.855c-.251.093-.651.127-.718.295-.088.219.086.543.148.823.25-.114.608-.166.717-.36.1-.171-.086-.5-.147-.757M705.623,91.3l-.194-.433-.476.5c.128.081.257.224.386.224.094,0,.188-.188.283-.292m-8.316-14.071c-.1-.262-.142-.666-.326-.749s-.526.131-.8.215c.1.275.138.673.335.786.161.093.518-.154.789-.252M516.533,30.825a4.222,4.222,0,0,0,.355-.676c.02-.062-.18-.2-.28-.3a4.862,4.862,0,0,0-.373.693c-.019.05.191.185.3.282m160.62,8.181-.3-.211-.068.281Zm3.578.3.361-.122-.337-.173Zm-103.3-1.884.35.161-.192-.5-.158.335m-207.5-7.816-.214-.343c-.1.091-.293.233-.276.265a2.746,2.746,0,0,0,.346.447c.048-.123.1-.245.144-.368m-54.19.388c-.111.07-.289.123-.315.217-.03.109.074.255.121.384l.545-.375-.351-.226M625.387,48.4l.331.13c.036-.1.072-.194.108-.291a.95.95,0,0,0-.327-.105c-.041,0-.076.173-.112.267m-26.345-.564.314-.157c-.088-.077-.17-.205-.267-.218s-.2.091-.307.144l.26.231M702.16,53.628a4.729,4.729,0,0,0-.812-.339c-.092-.021-.234.18-.353.279.2.168.376.438.592.47.162.025.371-.255.573-.41m-282.978-12.5-.1-.309-.15.286ZM703.847,58.174l.772-.247c-.077-.121-.166-.352-.23-.345a4.049,4.049,0,0,0-.729.2l.187.393M53.8,24.345l.406.149-.251-.452-.156.3M694,84.911c.121-.058.3-.088.345-.182.053-.116-.009-.284-.022-.43l-.522.239.2.373M531.721,66.648l.28.067-.076-.357Z" transform="translate(0 -6.273)" fill="#fc9f06"/>
        <path id="Caminho_1580" data-name="Caminho 1580" d="M714.318,18.413c-6.689-1-13.287-.851-19.873-1.124-4.692-.195-9.446.2-14.108-1.02a17.564,17.564,0,0,0-5.551-.127,20,20,0,0,1-6.544-.263c-1.553-.4-3.337.226-5.01.168-4.235-.147-8.466-.408-12.7-.648-8.957-.508-17.908-1.112-26.876-1.445-7.112-.265-14.206-1.05-21.318-1.239a166.575,166.575,0,0,0-16.678-.114c-4.367.321-8.786-.018-13.181-.117-8.809-.2-17.618-.448-26.427-.647-7.12-.161-14.242-.37-21.363-.381-5.064-.007-10.128.379-15.194.409-4.745.028-9.49-.219-14.237-.281q-19.051-.247-38.1-.44c-6.609-.077-13.219-.187-19.829-.239-8.306-.065-16.624-.357-24.917-.048-8.147.3-16.262-.253-24.391-.2-5.392.037-10.782.39-16.175.467-5.931.083-11.865-.073-17.8.022-11.694.188-23.387.47-35.079.727s-23.4.584-35.1.781c-9.492.16-18.987.157-28.481.256s-18.99.079-28.477.387c-15.76.513-31.519.143-47.274.3-7.809.077-15.6-.619-23.382-.246-6.121.293-12.225-.547-18.281-.143-8.838.589-17.625-.6-26.439-.121-4.885.264-9.782.335-14.675.422-2.876.051-5.754-.058-8.63-.052-6.438.013-12.876.07-19.314.074-4.03,0-8.063,0-12.091-.11-5.91-.168-11.817-.437-17.724-.684a3.284,3.284,0,0,1-.925-.347c-.442-1.009.446-1.129.991-1.253,1.414-.32,2.857-.507,5.088-.881-5.163-1.29-9.594.554-14.469-.769.794-.625,1.2-1.225,1.666-1.272,10.279-1.035,20.6-1.392,30.913-1.92,1.007-.051,2.272-.311,2.985.169,2.064,1.388,4.229.919,6.411.9,10.514-.107,21.029-.139,31.543-.291,7.113-.1,14.224-.4,21.337-.527,2.88-.053,5.765.14,8.648.147,10.685.027,21.375.207,32.052-.091,2.861-.08,5.667.146,8.5.182,2.885.037,5.77.128,8.656.129,7.621,0,15.241-.074,22.861-.03,4.551.026,9.1.33,13.649.31,6.744-.029,13.486-.293,20.23-.345,5.418-.041,10.838.142,16.255.12,7.418-.029,14.836-.185,22.254-.236,4.356-.03,8.734-1,13.064.259,2.1-1.79,4.466.545,6.8-.543,1.882-.875,4.061.834,6.4.067,2.164-.71,4.688-.334,7.054-.408,2.2-.069,4.409-.111,6.614-.15,10.326-.183,20.654-.531,30.979-.484,7.083.032,14.144-.482,21.229-.4,8.128.1,16.261-.24,24.392-.358,1.349-.02,2.7.1,4.05.189a9.372,9.372,0,0,0,2.506.195c5.383-1.237,10.814-.386,16.215-.406,11.009-.039,22.019.144,33.029.237a18.923,18.923,0,0,1,2.037.04c7.766.91,15.565-.1,23.335.427,1.68.114,3.355.31,5.031.477a5.653,5.653,0,0,0,1.5.174c3.706-.708,7.418-.289,11.133-.163,5.555.189,11.123.156,16.665.521,2.468.163,5.022-.439,7.439.7,1.184.559,2.185-1.877,3.666-.357,1.066,1.094,2.212-.02,3.332-.148a13.318,13.318,0,0,1,2.471.169c1.169.09,2.471.547,3.482.188a9.669,9.669,0,0,1,6.464-.117,2.722,2.722,0,0,0,1.458.19c4.848-1.4,9.633-.217,14.43.3,1.168.126,2.275.476,3.449-.216a2.025,2.025,0,0,1,1.9.076c1.425,1.517,3.216.759,4.773.838A173.328,173.328,0,0,0,584.2,8.015c.337-.025.764-.17,1-.022,2.9,1.822,5.906.215,8.852.316,1.683.058,3.377-.216,5.062-.184,5.912.11,11.827.208,17.734.462,6.081.262,12.125,1.027,18.221,1.2,7.6.218,15.2.789,22.793,1.214,5.246.295,10.5.511,15.732.943,2.342.192,4.631.973,6.972,1.234,8.582.957,17.174,1.826,25.767,2.688a17.008,17.008,0,0,1,7.984,2.546M616.2,11.69q.089-.218.178-.435l-.522.268.345.167" transform="translate(-10.877 -1.618)" fill="#fc9f06"/>
        <path id="Caminho_1581" data-name="Caminho 1581" d="M988.721,140.213a289.667,289.667,0,0,1,31.876,2.171q-15.826-.811-31.651-1.638c-.055,0-.1-.226-.225-.533" transform="translate(-361.031 -51.199)" fill="#fc9f06"/>
        <path id="Caminho_1582" data-name="Caminho 1582" d="M877.569,40.307c4.723-.05,9.232-.118,13.741-.1.33,0,.658.614.987.942-.34.316-.69.914-1.02.9-4.576-.148-9.194.336-13.7-.837a5.2,5.2,0,0,1-.005-.907" transform="translate(-320.439 -14.68)" fill="#fc9f06"/>
        <path id="Caminho_1583" data-name="Caminho 1583" d="M1148.151,111.748l5.255,1.77c-1.894-.079-4.024,1-5.255-1.77" transform="translate(-419.247 -40.805)" fill="#fc9f06"/>
        <path id="Caminho_1584" data-name="Caminho 1584" d="M1114.271,33.571l-5.161-.3c.006-.074.012-.149.018-.223l5.167.3c-.008.074-.016.148-.023.222" transform="translate(-404.991 -12.068)" fill="#fc9f06"/>
        <path id="Caminho_1585" data-name="Caminho 1585" d="M1121.31,47.211c2.372-.771,2.372-.771,3.64.469a4.9,4.9,0,0,1-1.431.2,19.211,19.211,0,0,1-2.209-.666" transform="translate(-409.446 -17.046)" fill="#fc9f06"/>
        <path id="Caminho_1586" data-name="Caminho 1586" d="M137.758.872l1.8.1c0,.064-.008.129-.012.194l-1.8-.1.011-.194" transform="translate(-50.298 -0.318)" fill="#fc9f06"/>
        <path id="Caminho_1587" data-name="Caminho 1587" d="M1163.725,77.831l1.9.027,0,.291-1.9-.11c0-.069,0-.138.006-.208" transform="translate(-424.932 -28.42)" fill="#fc9f06"/>
        <path id="Caminho_1588" data-name="Caminho 1588" d="M31.815,17.428l-1.762-.1c.006-.091.011-.182.017-.273l1.761.1c-.005.091-.011.182-.016.274" transform="translate(-10.974 -6.227)" fill="#fc9f06"/>
        <path id="Caminho_1589" data-name="Caminho 1589" d="M695.184.8l1.811.1-.006.309h-1.816c0-.138.008-.276.011-.414" transform="translate(-253.842 -0.293)" fill="#fc9f06"/>
        <path id="Caminho_1590" data-name="Caminho 1590" d="M190.3.605c1.274-.1,1.745-.161,2.216-.164.133,0,.269.157.4.243-.174.173-.363.5-.52.488a15.393,15.393,0,0,1-2.1-.566" transform="translate(-69.488 -0.161)" fill="#fc9f06"/>
        <path id="Caminho_1591" data-name="Caminho 1591" d="M1175.668,79.546l.351.519c-.141,0-.34.051-.412-.022a2.491,2.491,0,0,1-.337-.55l.4.053" transform="translate(-429.149 -29.027)" fill="#fc9f06"/>
        <path id="Caminho_1592" data-name="Caminho 1592" d="M965.806,139.959l2,.211c-.015.176-.031.352-.046.528l-2.009-.116q.025-.311.053-.623" transform="translate(-352.644 -51.106)" fill="#fc9f06"/>
        <path id="Caminho_1593" data-name="Caminho 1593" d="M666.341.615l.386.223c-.091.09-.223.272-.265.254a3.585,3.585,0,0,1-.538-.352l.417-.125" transform="translate(-243.162 -0.225)" fill="#fc9f06"/>
        <path id="Caminho_1594" data-name="Caminho 1594" d="M630.937.744l-.378-.12a1.913,1.913,0,0,1,.479-.258c.07-.016.183.157.277.244l-.378.134" transform="translate(-230.248 -0.133)" fill="#fc9f06"/>
        <path id="Caminho_1595" data-name="Caminho 1595" d="M1127.1,35.782l-.3-.272a3.3,3.3,0,0,1,.6-.333c.063-.021.2.169.3.262l-.6.343" transform="translate(-411.451 -12.844)" fill="#fc9f06"/>
        <path id="Caminho_1596" data-name="Caminho 1596" d="M186.143.435a2.558,2.558,0,0,1-.761.248c-.086,0-.181-.356-.272-.549.133-.047.3-.168.392-.127a3.97,3.97,0,0,1,.64.427" transform="translate(-67.593 0)" fill="#fc9f06"/>
        <path id="Caminho_1597" data-name="Caminho 1597" d="M1141.166,60.152l-.357.081.217-.438.14.357" transform="translate(-416.566 -21.834)" fill="#fc9f06"/>
        <path id="Caminho_1598" data-name="Caminho 1598" d="M.7,124.831c.014-.1.028-.19.041-.286.14.022.28.039.416.074a.518.518,0,0,1-.027.2,3.458,3.458,0,0,1-.43.01" transform="translate(-0.257 -45.478)" fill="#fc9f06"/>
        <path id="Caminho_1599" data-name="Caminho 1599" d="M1148.735,96l.512.445c-.109.069-.263.22-.32.19a3.594,3.594,0,0,1-.545-.42l.352-.215" transform="translate(-419.332 -35.055)" fill="#fc9f06"/>
        <path id="Caminho_1600" data-name="Caminho 1600" d="M964.585,5.207l.265.182-.326.06Z" transform="translate(-352.196 -1.901)" fill="#fc9f06"/>
        <path id="Caminho_1601" data-name="Caminho 1601" d="M916.089,3.924l-.008.33-.42-.178Z" transform="translate(-334.353 -1.433)" fill="#fc9f06"/>
        <path id="Caminho_1602" data-name="Caminho 1602" d="M880.289,3.679l.152-.282.212.422-.364-.14" transform="translate(-321.437 -1.24)" fill="#fc9f06"/>
        <path id="Caminho_1603" data-name="Caminho 1603" d="M1101.128,32.553l-.42.225-.293-.549a1.232,1.232,0,0,1,.472-.006c.107.043.162.215.241.33" transform="translate(-401.816 -11.758)" fill="#fc9f06"/>
      </g>
    </g>
  </g>
</svg>
